<mxfile host="app.diagrams.net" modified="2024-05-13T17:54:46.847Z" agent="Mozilla/5.0 (Windows NT 10.0; Win64; x64) AppleWebKit/537.36 (KHTML, like Gecko) Chrome/124.0.0.0 Safari/537.36" version="24.3.1" etag="oWIkn3v5Bj4FbRfAPfLx" type="github">
  <diagram name="Page-1" id="SEWsyKc5rU6Fcgs1RWHf">
    <mxGraphModel>
      <root>
        <mxCell id="0" />
        <mxCell id="1" parent="0" />
      </root>
    </mxGraphModel>
  </diagram>
</mxfile>
